<svg xmlns="http://www.w3.org/2000/svg" xmlns:xlink="http://www.w3.org/1999/xlink" width="243.358" height="53.049" viewBox="0 0 243.358 53.049">
  <defs>
    <clipPath id="clip-path">
      <rect id="사각형_69" data-name="사각형 69" width="243.358" height="53.049" fill="#fff"/>
    </clipPath>
  </defs>
  <g id="그룹_50" data-name="그룹 50" clip-path="url(#clip-path)">
    <path id="패스_45" data-name="패스 45" d="M0,26.508c1.51-.187,2.488-.55,2.917-1.14.428-.607.643-1.967.643-4.114V4.749A4.453,4.453,0,0,0,2.94,1.878c-.409-.451-1.352-.71-2.817-.8V.317H7.271l8.456,20.4L23.964.317h7.147v.765a4.124,4.124,0,0,0-2.6.833,4.661,4.661,0,0,0-.576,2.835V22.83a4.554,4.554,0,0,0,.576,2.838,4.268,4.268,0,0,0,2.6.84v.763H20.919v-.763c1.482-.138,2.4-.444,2.764-.887s.548-1.54.548-3.272V4.094l-9.36,23.177H14.38L5.163,5.045V21.254c0,2.225.283,3.675.871,4.356a4.443,4.443,0,0,0,2.575.9v.763H0Z" transform="translate(0 0.125)" fill="#fff"/>
    <path id="패스_46" data-name="패스 46" d="M35.814,27.4v-.763a5.781,5.781,0,0,1-1.731-.366,1.479,1.479,0,0,1-.734-1.42,4.8,4.8,0,0,1,.276-1.4q.272-.881,1.762-4.9H44.9l1.462,3.925a14.137,14.137,0,0,1,.509,1.586,6.723,6.723,0,0,1,.173,1.045c0,.6-.173.975-.473,1.14a8.019,8.019,0,0,1-2.079.381V27.4h9.285v-.763A3.083,3.083,0,0,1,52,25.883a10.744,10.744,0,0,1-1.415-2.864L41.522,0h-.787L33.194,19.992a31.583,31.583,0,0,1-2.414,5.468,3.009,3.009,0,0,1-2.149,1.173V27.4Zm.177-10.508L40.122,5.727l4.163,11.161Z" transform="translate(11.314 0)" fill="#fff"/>
    <path id="패스_47" data-name="패스 47" d="M61.665.317v.765a5.561,5.561,0,0,0-1.932.223A1.079,1.079,0,0,0,59.1,2.426a2.31,2.31,0,0,0,.106.65A4.12,4.12,0,0,0,59.695,4.1l5.332,8.791,5.239-8.933A4.744,4.744,0,0,0,70.687,3a2.852,2.852,0,0,0,.089-.568,1.1,1.1,0,0,0-.822-1.148,6.616,6.616,0,0,0-1.723-.205V.317h7.909v.765a3.38,3.38,0,0,0-1.967.752A14.006,14.006,0,0,0,71.132,5.74L65.75,14.955v7.9c0,1.561.233,2.532.674,2.921a5.883,5.883,0,0,0,3.092.735v.763h-11.1v-.763c1.623-.117,2.656-.379,3.039-.84.4-.421.6-1.535.6-3.291V15.33L57.289,7.5a47.584,47.584,0,0,0-3.468-5.189A3.453,3.453,0,0,0,51.4,1.082V.317Z" transform="translate(20.311 0.125)" fill="#fff"/>
    <path id="패스_48" data-name="패스 48" d="M76.317,26.508a4.644,4.644,0,0,0,2.669-.883c.352-.41.519-1.486.519-3.227V4.749a4.65,4.65,0,0,0-.576-2.835,4.129,4.129,0,0,0-2.612-.833V.317H95.708l.186,5.761H94.881c-.262-1.857-.728-3.044-1.42-3.545-.71-.5-2.069-.737-4.135-.737H84.353a1.188,1.188,0,0,0-.943.279,2.055,2.055,0,0,0-.2,1.1v9.184h5.222c1.57,0,2.561-.269,2.993-.783a7.33,7.33,0,0,0,1.032-3.124h.83v9.409h-.83a7.22,7.22,0,0,0-1.064-3.14c-.413-.527-1.409-.776-2.96-.776H83.209v8.9c0,1.482.2,2.432.605,2.843a4.59,4.59,0,0,0,2.708.813v.763H76.317Z" transform="translate(30.156 0.125)" fill="#fff"/>
    <path id="패스_49" data-name="패스 49" d="M98.062,26.508a5.427,5.427,0,0,0,2.854-.751c.43-.374.649-1.345.649-2.906V4.749c0-1.505-.219-2.475-.649-2.9a4.741,4.741,0,0,0-2.854-.766V.317h10.722v.765a4.778,4.778,0,0,0-2.856.766c-.444.427-.657,1.4-.657,2.9v18.1c0,1.561.213,2.532.657,2.906a5.474,5.474,0,0,0,2.856.751v.763H98.062Z" transform="translate(38.748 0.125)" fill="#fff"/>
    <path id="패스_50" data-name="패스 50" d="M113.956,26.508a4.876,4.876,0,0,0,2.6-.813c.391-.374.593-1.325.593-2.843V4.749a4.707,4.707,0,0,0-.579-2.835,4.156,4.156,0,0,0-2.614-.833V.317H133.28l.191,5.761h-.949c-.311-1.8-.781-2.959-1.388-3.491s-1.978-.791-4.1-.791h-4.992c-.548,0-.886.1-1.009.279a2.252,2.252,0,0,0-.187,1.1v9.184h5.607c1.567,0,2.578-.269,3-.783a7.141,7.141,0,0,0,1.024-3.124h.831v9.409h-.831a6.984,6.984,0,0,0-1.042-3.14c-.437-.527-1.426-.776-2.979-.776h-5.607V24.023c0,.8.234,1.275.695,1.424a20.826,20.826,0,0,0,4.088.22,12.827,12.827,0,0,0,5.483-.885c1.169-.593,2.227-2.031,3.206-4.3h1l-1.643,6.787H113.956Z" transform="translate(45.028 0.125)" fill="#fff"/>
    <path id="패스_51" data-name="패스 51" d="M136.947,26.508a4.869,4.869,0,0,0,2.6-.813c.395-.374.586-1.325.586-2.843V4.749a4.588,4.588,0,0,0-.583-2.835,4.1,4.1,0,0,0-2.6-.833V.317h10.268v.765a4.717,4.717,0,0,0-2.693.751c-.459.4-.688,1.286-.688,2.654V24.023a2.444,2.444,0,0,0,.2,1.053,1.163,1.163,0,0,0,.911.49c.278.043.564.066.869.091.31,0,.879.011,1.713.011,3.248,0,5.437-.294,6.591-.89s2.253-2.112,3.333-4.554h.926l-1.8,7.047H136.947Z" transform="translate(54.113 0.125)" fill="#fff"/>
    <path id="패스_52" data-name="패스 52" d="M156.926,27.271h10.123a18.508,18.508,0,0,0,6.884-1.143,11.027,11.027,0,0,0,2.944-1.832,11.7,11.7,0,0,0,3.358-4.63,15.2,15.2,0,0,0,1.117-5.786q0-8.444-6.185-11.726a17.73,17.73,0,0,0-8.41-1.837h-9.832v.766a4.211,4.211,0,0,1,2.6.8,4.7,4.7,0,0,1,.585,2.864v18.1c0,1.517-.208,2.469-.612,2.843a4.824,4.824,0,0,1-2.577.812Zm6.886-3.106V3.409c0-.679.14-1.111.449-1.321a3.248,3.248,0,0,1,1.671-.292,11.393,11.393,0,0,1,7.915,2.711c2.33,2.105,3.482,5.258,3.482,9.441q0,7.05-4.241,9.958a12.076,12.076,0,0,1-7.012,1.895,3.265,3.265,0,0,1-1.815-.326c-.31-.206-.449-.65-.449-1.309" transform="translate(62.007 0.125)" fill="#fff"/>
    <path id="패스_53" data-name="패스 53" d="M61.36,41.3l-.381-2.775h.437a4.065,4.065,0,0,0,1.007,1.938,2.626,2.626,0,0,0,1.957.875,2.6,2.6,0,0,0,1.863-.7,2.4,2.4,0,0,0,.742-1.825,2.752,2.752,0,0,0-1.464-2.376q-1.35-.8-2.7-1.578a3.607,3.607,0,0,1-1.464-3.022,3.451,3.451,0,0,1,1.159-2.775,4.3,4.3,0,0,1,2.907-.95q.419,0,2.32.286l.3,2.432h-.438a2.23,2.23,0,0,0-2.451-2.109,2.127,2.127,0,0,0-1.673.684,2.538,2.538,0,0,0-.608,1.75,2.781,2.781,0,0,0,1.526,2.4q1.41.8,2.821,1.577a3.507,3.507,0,0,1,1.526,2.966,3.442,3.442,0,0,1-1.391,2.85,4.875,4.875,0,0,1-3.087,1.007A6.856,6.856,0,0,1,61.36,41.3" transform="translate(24.095 11.106)" fill="#fff"/>
    <path id="패스_54" data-name="패스 54" d="M73.448,28.919v5.4h2.508a1.406,1.406,0,0,0,1.349-.646,2.981,2.981,0,0,0,.247-.989h.381q-.075.837-.077,2.129c0,.177.017.52.049,1.027a10.521,10.521,0,0,1,.028,1.084h-.381q0-1.274-.494-1.6a3.313,3.313,0,0,0-1.577-.227H73.448v3.231a4.935,4.935,0,0,0,.266,2.109q.341.532,1.691.532h1.179a4.243,4.243,0,0,0,2.147-.419,3.809,3.809,0,0,0,1.293-1.957l.455.077a26.551,26.551,0,0,0-.778,2.907H69.78v-.494q1.216,0,1.511-.371a3.342,3.342,0,0,0,.294-1.776V30.5q0-1.122-.314-1.388a2.792,2.792,0,0,0-1.491-.3v-.494h9.313v2.832l-.379.095a2.673,2.673,0,0,0-.894-1.815,3.646,3.646,0,0,0-2.147-.5Z" transform="translate(27.573 11.187)" fill="#fff"/>
    <path id="패스_55" data-name="패스 55" d="M80.637,35.1A6.924,6.924,0,0,1,82.5,30.292a6.428,6.428,0,0,1,4.981-2.186,6.5,6.5,0,0,1,4.827,2.072,6.611,6.611,0,0,1,1.957,4.77A6.931,6.931,0,0,1,92.4,39.757a6.693,6.693,0,0,1-9.79.114A6.587,6.587,0,0,1,80.637,35.1m2.09-.551a8.32,8.32,0,0,0,1.235,4.467,4.231,4.231,0,0,0,3.687,2.319,3.937,3.937,0,0,0,3.29-1.616A6.76,6.76,0,0,0,92.173,35.5a8.419,8.419,0,0,0-1.235-4.487,4.237,4.237,0,0,0-3.687-2.3,3.937,3.937,0,0,0-3.29,1.616,6.76,6.76,0,0,0-1.235,4.219" transform="translate(31.863 11.106)" fill="#fff"/>
    <path id="패스_56" data-name="패스 56" d="M106.8,28.311V28.8q-1.065,0-1.311.665a8.572,8.572,0,0,0-.19,2.394v5.475a4.329,4.329,0,0,1-1.217,3.231,5.156,5.156,0,0,1-3.745,1.292A5.364,5.364,0,0,1,96.637,40.7a4.549,4.549,0,0,1-1.369-3.592V30.174a1.246,1.246,0,0,0-.5-1.179,3.045,3.045,0,0,0-1.235-.19v-.494h5.321V28.8a3.05,3.05,0,0,0-1.235.19,1.249,1.249,0,0,0-.494,1.179v6.462q0,4.447,3.705,4.448,3.459,0,3.46-3.745V31.922a15.681,15.681,0,0,0-.095-2.185.992.992,0,0,0-.5-.8,5.185,5.185,0,0,0-1.215-.133v-.494H106.8Z" transform="translate(36.96 11.187)" fill="#fff"/>
    <path id="패스_57" data-name="패스 57" d="M116.448,38.669l-.7,2.907h-9.865v-.494q1.729.094,1.729-1.274V30.173a1.253,1.253,0,0,0-.492-1.179,3.041,3.041,0,0,0-1.236-.188v-.5H111.2v.5a3.022,3.022,0,0,0-1.235.188,1.247,1.247,0,0,0-.494,1.179v8.8a1.846,1.846,0,0,0,.494,1.521,6.421,6.421,0,0,0,4.894-.02,3.43,3.43,0,0,0,1.169-1.881Z" transform="translate(41.837 11.186)" fill="#fff"/>
  </g>
</svg>
